<?xml version="1.0" encoding="UTF-8"?>
<svg xmlns="http://www.w3.org/2000/svg" viewBox="0 0 64 64" width="64" height="64" aria-hidden="true">
  <g fill="none" stroke="#20364c" stroke-width="3" stroke-linecap="round" stroke-linejoin="round">
    <!-- Stylized head (side) outline -->
    <path d="M38 10
         C30 8 22 10 17 16
         C12 22 11 30 14 37
         C15 40 13 43 11 46
         C10 48 12 50 14 50
         C16 50 17 49 18 48
         C19 52 23 54 28 54
         L38 54
         C44 54 48 50 48 44
         L48 34
         C52 32 54 28 52 24
         C50 20 46 16 42 12
         C41 11 40 11 38 10 Z"/>
    <!-- Clock hands -->
    <line x1="32" y1="34" x2="32" y2="26"/>
    <line x1="32" y1="34" x2="39" y2="36"/>
  </g>
</svg>
