<?xml version="1.0" standalone="no"?>
<!DOCTYPE svg PUBLIC "-//W3C//DTD SVG 20010904//EN"
 "http://www.w3.org/TR/2001/REC-SVG-20010904/DTD/svg10.dtd">
<svg version="1.0" xmlns="http://www.w3.org/2000/svg"
 width="2073.000000pt" height="2073.000000pt" viewBox="0 0 2073.000000 2073.000000"
 preserveAspectRatio="xMidYMid meet">
<metadata>
Created by potrace 1.11, written by Peter Selinger 2001-2013
</metadata>
<g transform="translate(0.000000,2073.000000) scale(0.100000,-0.100000)"
fill="#000000" stroke="none">
<path d="M9979 18366 c-2 -2 -35 -6 -74 -10 -38 -3 -81 -8 -95 -10 -14 -3 -38
-7 -55 -10 -16 -2 -48 -7 -70 -11 -22 -3 -67 -12 -99 -20 -33 -7 -69 -12 -80
-10 -63 10 -104 16 -164 21 -37 3 -85 7 -107 9 -53 6 -284 6 -361 1 -202 -14
-424 -59 -634 -131 -99 -33 -107 -34 -199 -28 -177 12 -493 6 -603 -12 -13 -2
-59 -9 -103 -15 -168 -24 -440 -101 -585 -167 -232 -104 -486 -269 -643 -418
-27 -25 -35 -27 -135 -30 -242 -6 -446 -94 -714 -307 -100 -80 -242 -217 -558
-544 -167 -172 -183 -188 -365 -339 -250 -208 -335 -299 -440 -474 -45 -75
-175 -366 -175 -392 0 -5 -40 -87 -88 -182 -113 -221 -163 -368 -168 -493 -5
-112 14 -189 62 -262 l35 -54 -36 -73 c-80 -159 -94 -302 -50 -517 21 -103
106 -286 201 -432 61 -92 179 -246 209 -271 18 -15 34 -48 40 -84 23 -132 123
-362 217 -499 201 -293 582 -532 1093 -686 70 -21 373 -94 416 -100 57 -8 67
-16 80 -54 20 -63 60 -122 136 -203 60 -64 73 -85 73 -111 0 -18 7 -60 16 -93
9 -34 17 -106 18 -165 1 -91 5 -113 29 -163 64 -139 187 -254 442 -415 61 -38
170 -114 244 -169 73 -56 145 -107 160 -114 14 -8 46 -27 70 -43 60 -40 291
-157 375 -190 103 -41 262 -92 315 -102 8 -1 46 -10 85 -18 102 -23 114 -25
181 -32 33 -3 71 -8 85 -10 128 -21 675 -21 786 0 11 2 58 7 104 10 46 4 86 8
89 10 3 2 35 7 71 10 36 4 72 8 80 10 8 1 38 6 65 10 28 4 106 19 174 32 69
13 132 24 140 24 10 -1 36 -41 70 -111 119 -244 317 -489 540 -667 62 -49 107
-115 245 -357 13 -22 57 -98 98 -170 128 -223 304 -549 405 -750 20 -38 46
-91 59 -116 13 -26 24 -52 24 -59 0 -17 96 -217 128 -265 142 -217 321 -340
502 -344 92 -2 214 22 257 52 42 29 62 91 58 183 -6 120 -45 248 -184 604 -33
86 -63 175 -67 198 -7 48 -1 51 70 31 47 -13 71 -19 111 -25 17 -3 55 -12 85
-19 30 -8 71 -17 90 -20 19 -3 46 -7 60 -10 14 -2 120 -7 235 -10 116 -3 226
-8 245 -10 129 -13 226 -19 300 -19 86 0 239 12 251 19 3 3 24 7 45 10 51 6
82 12 163 31 36 9 75 18 86 20 47 9 65 13 160 38 163 41 309 94 480 173 117
53 270 152 369 237 177 152 282 308 321 476 15 63 25 83 62 123 44 47 90 132
99 183 3 15 11 55 18 89 7 33 12 68 10 77 -7 50 -16 100 -28 153 -7 33 -12 61
-11 63 1 1 51 4 110 7 60 2 125 7 144 9 159 21 154 20 221 35 25 6 55 13 68
15 38 8 62 16 160 52 360 133 616 370 790 734 72 152 153 401 176 545 2 17 11
71 20 120 9 50 18 115 21 145 3 30 8 75 10 100 21 188 21 707 0 930 -2 19 -6
77 -10 129 -4 51 -8 101 -10 110 -1 9 -6 43 -9 76 -4 33 -9 78 -12 100 -7 62
-34 226 -44 265 -5 19 -12 51 -15 70 -22 128 -95 351 -158 477 -22 45 -65 115
-95 155 -62 83 -64 87 -128 263 -119 331 -261 536 -478 691 -38 27 -70 57 -72
67 -1 10 -5 44 -8 75 -7 63 -14 108 -22 134 -3 10 -7 30 -10 45 -8 50 -76 247
-110 318 -51 109 -90 173 -164 270 -138 182 -332 347 -545 466 -42 23 -52 34
-66 76 -38 111 -107 217 -218 333 -35 36 -101 116 -148 179 -102 136 -116 152
-213 251 -248 253 -623 476 -1065 633 -129 46 -337 109 -405 122 -8 2 -44 11
-80 20 -36 9 -75 19 -88 21 -25 5 -48 14 -222 84 -197 79 -357 119 -625 155
-22 3 -141 8 -265 12 l-225 6 -85 42 c-134 67 -369 141 -505 160 -23 3 -52 8
-65 11 -28 6 -395 16 -401 10z"/>
<path d="M880 15445 c-174 -36 -270 -189 -304 -480 -10 -85 -15 -128 -21 -185
-3 -30 -14 -129 -25 -220 -23 -202 -34 -308 -45 -445 -9 -109 -13 -162 -20
-270 -3 -55 -8 -127 -10 -160 -5 -61 -12 -215 -20 -405 -6 -154 -20 -652 -31
-1080 -3 -146 -8 -301 -10 -345 -5 -117 -5 -640 0 -710 3 -33 7 -100 10 -150
3 -49 10 -135 16 -190 17 -173 21 -202 41 -350 13 -92 14 -101 24 -174 3 -30
9 -63 11 -75 2 -12 6 -39 9 -61 5 -38 8 -59 20 -115 2 -14 7 -41 10 -60 10
-61 63 -342 79 -417 9 -40 18 -87 21 -105 4 -18 12 -60 20 -93 8 -33 24 -103
36 -155 46 -203 161 -649 210 -820 212 -727 330 -1007 573 -1355 131 -188 198
-268 376 -445 313 -313 489 -442 1275 -935 61 -38 115 -73 120 -77 6 -5 46
-31 90 -59 193 -124 459 -323 625 -468 158 -138 368 -357 494 -516 26 -33 53
-68 61 -77 33 -40 177 -261 230 -353 134 -231 237 -461 390 -870 54 -143 117
-304 141 -359 126 -287 250 -405 464 -441 106 -18 172 -27 300 -41 135 -16
530 -9 625 10 11 2 40 7 65 12 25 4 47 8 50 9 3 0 23 4 45 9 84 16 230 66 343
117 35 16 65 29 67 29 13 0 248 146 289 180 236 197 378 352 536 588 87 129
113 196 113 284 -1 57 -6 79 -42 152 -23 48 -100 175 -172 284 -344 519 -466
789 -533 1177 -17 98 -17 99 -46 325 -11 85 -22 166 -24 180 -3 14 -12 72 -21
130 -9 58 -22 133 -30 166 -8 34 -16 73 -19 85 -44 216 -164 484 -291 654
-141 187 -393 382 -600 463 -27 11 -80 34 -118 51 -37 17 -71 31 -75 31 -6 0
-209 83 -267 110 -11 5 -103 44 -205 87 -364 153 -646 308 -919 504 -84 60
-159 115 -166 122 -7 7 -25 21 -40 31 -14 11 -34 27 -45 35 -10 9 -35 30 -56
46 -38 30 -105 85 -114 95 -3 3 -39 35 -80 70 -76 66 -341 327 -441 435 -51
55 -277 324 -341 405 -15 19 -121 157 -235 306 -204 267 -253 328 -343 428
-479 535 -1035 754 -1261 498 -83 -95 -109 -186 -105 -363 2 -64 6 -120 9
-125 3 -5 8 -30 12 -54 18 -127 140 -421 257 -620 47 -79 165 -259 178 -270 3
-3 17 -21 30 -40 89 -130 291 -362 510 -585 75 -77 163 -171 195 -210 33 -38
71 -83 87 -100 15 -16 23 -32 18 -33 -26 -9 -210 103 -333 202 -135 107 -184
152 -327 296 -167 168 -247 259 -372 420 -245 318 -430 667 -489 920 -6 25
-13 54 -15 65 -43 184 -29 398 37 552 11 26 47 91 80 145 33 53 71 125 85 160
55 132 69 319 39 507 -3 13 -7 61 -10 105 -4 45 -8 92 -11 106 -9 54 -18 327
-18 555 0 226 5 377 21 760 15 338 9 1039 -12 1285 -7 85 -17 192 -21 222 -2
18 -6 53 -9 78 -8 66 -14 116 -26 200 -6 41 -12 84 -14 95 -20 155 -42 238
-90 335 -41 85 -51 101 -102 161 -120 140 -280 212 -413 184z"/>
<path d="M19730 15445 c-241 -49 -437 -303 -475 -616 -3 -24 -7 -51 -10 -59
-2 -8 -7 -35 -10 -60 -3 -25 -10 -76 -15 -115 -17 -124 -24 -187 -35 -310 -4
-44 -8 -96 -10 -115 -20 -201 -27 -1024 -12 -1300 25 -453 26 -1180 2 -1308
-1 -9 -6 -54 -9 -99 -4 -45 -9 -92 -12 -105 -3 -13 -8 -78 -11 -146 -10 -209
24 -343 131 -512 75 -118 100 -175 133 -305 3 -11 7 -81 8 -155 3 -105 -1
-156 -16 -230 -91 -437 -414 -957 -883 -1425 -144 -144 -195 -190 -306 -278
-135 -109 -332 -229 -347 -213 -10 10 128 167 327 372 272 281 396 429 562
669 193 280 337 587 384 817 22 108 26 267 10 343 -65 303 -327 386 -691 221
-40 -19 -98 -50 -129 -70 -31 -20 -59 -36 -61 -36 -6 0 -167 -119 -175 -129
-3 -3 -27 -24 -55 -46 -58 -46 -210 -197 -277 -276 -87 -102 -193 -236 -395
-500 -302 -396 -431 -547 -678 -795 -188 -189 -354 -336 -585 -517 -175 -138
-394 -284 -585 -390 -85 -47 -326 -163 -450 -217 -27 -12 -68 -30 -90 -40 -22
-10 -179 -75 -350 -145 -396 -164 -506 -222 -656 -346 -61 -51 -78 -68 -153
-149 -194 -210 -338 -543 -401 -925 -8 -49 -17 -99 -19 -110 -2 -11 -7 -42
-10 -70 -4 -27 -8 -61 -11 -75 -2 -14 -7 -47 -10 -75 -6 -57 -15 -128 -21
-165 -2 -14 -11 -76 -19 -138 -31 -217 -93 -431 -183 -627 -50 -108 -152 -297
-209 -385 -20 -30 -46 -71 -58 -90 -40 -63 -218 -334 -235 -360 -9 -14 -29
-56 -45 -95 -53 -135 -35 -230 79 -399 176 -260 374 -474 561 -608 130 -92
163 -112 287 -172 187 -91 362 -145 558 -172 25 -3 54 -8 65 -11 11 -3 119 -6
240 -8 318 -4 657 38 772 96 94 48 196 165 267 306 32 64 143 339 179 443 117
339 299 731 449 969 33 53 65 105 72 115 6 11 16 27 23 35 6 9 40 54 74 101
159 217 467 538 654 681 17 13 32 26 35 29 14 15 155 123 239 182 53 37 120
85 149 106 30 21 237 155 460 297 520 330 662 429 897 624 116 96 364 344 441
441 32 41 62 77 65 80 45 39 243 351 333 525 160 307 412 1140 590 1950 50
230 125 621 151 793 23 157 26 176 30 202 10 63 35 261 41 320 3 36 8 73 9 82
2 10 7 59 10 110 4 51 8 109 10 128 17 169 21 454 10 835 -8 310 -12 474 -19
775 -11 417 -16 586 -32 900 -10 225 -15 295 -29 480 -3 36 -7 97 -10 135 -3
39 -7 86 -10 105 -2 19 -7 71 -10 114 -4 43 -8 87 -10 97 -2 10 -6 44 -10 76
-7 69 -14 137 -20 178 -6 49 -16 137 -19 185 -2 25 -7 61 -10 80 -3 19 -8 53
-11 75 -26 192 -107 340 -217 396 -53 27 -133 37 -198 24z"/>
<path d="M1910 14377 c-59 -32 -81 -52 -109 -97 -40 -66 -58 -158 -61 -320 -6
-319 -3 -1564 4 -1880 8 -354 9 -443 5 -755 -3 -224 17 -306 82 -341 25 -13
90 -2 126 21 55 36 95 133 129 311 2 11 24 108 50 215 25 107 48 205 50 219 3
14 7 33 10 42 3 9 6 25 9 35 2 10 24 108 50 218 25 110 48 208 50 217 2 9 31
135 65 280 34 145 64 274 66 287 3 13 20 87 39 165 30 127 70 298 81 351 33
162 17 387 -38 550 -73 213 -222 391 -393 470 -52 24 -180 31 -215 12z"/>
<path d="M18639 14376 c-178 -63 -338 -239 -418 -458 -46 -125 -65 -232 -64
-368 0 -131 10 -182 138 -730 14 -58 41 -175 60 -260 20 -85 40 -171 45 -190
15 -55 141 -602 146 -635 3 -16 9 -44 15 -60 8 -26 25 -99 45 -194 3 -13 12
-51 20 -85 8 -34 17 -72 20 -86 3 -14 16 -69 30 -124 32 -129 63 -173 139
-199 118 -41 171 61 168 318 0 44 -2 157 -3 250 -2 94 1 325 5 515 10 390 10
1897 1 2006 -13 153 -60 244 -148 288 -59 29 -138 34 -199 12z"/>
<path d="M2913 13394 c-65 -28 -141 -132 -171 -234 -5 -19 -27 -89 -47 -155
-56 -184 -195 -691 -211 -774 -3 -14 -20 -86 -39 -160 -27 -109 -95 -401 -110
-471 -3 -17 -65 -295 -71 -325 -34 -149 -44 -257 -28 -321 14 -57 55 -125 108
-178 115 -113 198 -114 276 -1 36 52 105 195 151 313 16 42 34 86 39 97 85
190 464 1337 495 1498 17 88 16 255 -2 331 -41 179 -130 318 -243 376 -34 18
-109 20 -147 4z"/>
<path d="M17661 13383 c-142 -70 -248 -296 -249 -528 0 -141 5 -169 90 -445
44 -143 247 -762 258 -785 5 -11 16 -40 24 -65 59 -183 207 -562 264 -675 111
-223 197 -250 339 -108 80 80 113 157 115 264 1 68 -11 129 -123 624 -39 171
-72 317 -74 325 -2 8 -30 123 -64 255 -53 214 -79 313 -136 520 -48 177 -130
436 -152 480 -56 109 -111 155 -193 160 -37 3 -61 -2 -99 -22z"/>
<path d="M3549 12330 c-76 -13 -165 -107 -242 -255 -28 -56 -175 -358 -230
-475 -19 -41 -54 -120 -77 -175 -23 -55 -48 -113 -55 -130 -14 -33 -85 -242
-108 -320 -62 -204 -81 -452 -43 -565 10 -30 21 -57 25 -60 3 -3 15 -18 25
-33 36 -58 148 -81 187 -40 9 10 48 79 86 153 39 74 124 230 190 345 248 434
348 632 422 833 62 170 80 257 78 387 -2 103 -4 115 -35 177 -54 110 -141 172
-223 158z"/>
<path d="M17135 12332 c-69 -12 -140 -78 -183 -171 -22 -48 -27 -72 -28 -161
-4 -158 30 -293 133 -530 53 -122 168 -349 243 -480 20 -36 49 -85 63 -110 13
-25 60 -106 102 -180 43 -74 109 -196 148 -270 38 -74 78 -144 88 -154 27 -29
97 -26 145 5 145 96 147 404 6 824 -79 232 -158 415 -337 780 -139 281 -192
363 -270 416 -41 28 -74 37 -110 31z"/>
</g>
</svg>
